<svg width="131" height="27" viewBox="0 0 131 27" fill="none" xmlns="http://www.w3.org/2000/svg">
<g filter="url(#filter0_d)">
<mask id="path-1-outside-1" maskUnits="userSpaceOnUse" x="0" y="0" width="129" height="25" fill="black">
<rect fill="white" width="129" height="25"/>
<path d="M11.6875 21.543V19H1V21.543H11.6875Z"/>
<path d="M16.2695 19H19.1289L20.7344 10.9375L21.0039 12.2266L22.3984 19H25.2578L27.5312 6.32031H24.543L23.6055 13.7969L23.4414 15.0273L23.2188 13.8203L21.8477 6.32031H19.668L18.2969 13.8555L18.0742 15.0625L16.9727 6.32031H13.9961L16.2695 19Z"/>
<path d="M35.8984 19.2344C37.125 19.2344 38.1875 18.9961 39.0859 18.5195C39.9844 18.043 40.6406 17.5117 41.0547 16.9258L39.4258 15.168C39.0508 15.6523 38.5625 16.0156 37.9609 16.2578C37.3594 16.5 36.7383 16.6211 36.0977 16.6211C35.6445 16.6211 35.2266 16.5508 34.8438 16.4102C34.4609 16.2695 34.1211 16.0703 33.8242 15.8125C33.5352 15.5625 33.3047 15.2852 33.1328 14.9805C32.9609 14.668 32.8203 14.2578 32.7109 13.75V13.7148H41.3125V12.332C41.3125 11.4023 41.1836 10.5547 40.9258 9.78906C40.668 9.01562 40.293 8.35547 39.8008 7.80859C39.3008 7.26172 38.6914 6.83984 37.9727 6.54297C37.2617 6.23828 36.4492 6.08594 35.5352 6.08594C34.6523 6.08594 33.8359 6.24609 33.0859 6.56641C32.3359 6.88672 31.6875 7.33594 31.1406 7.91406C30.5938 8.49219 30.168 9.18359 29.8633 9.98828C29.5586 10.7852 29.4062 11.668 29.4062 12.6367V13.1055C29.4062 13.957 29.5586 14.7578 29.8633 15.5078C30.1758 16.25 30.6172 16.8945 31.1875 17.4414C31.7578 17.9961 32.4414 18.4336 33.2383 18.7539C34.0352 19.0742 34.9219 19.2344 35.8984 19.2344ZM35.5117 8.72266C35.9258 8.72266 36.2891 8.78906 36.6016 8.92188C36.9219 9.04688 37.1914 9.21875 37.4102 9.4375C37.6289 9.66406 37.8008 9.92969 37.9258 10.2344C38.0508 10.5391 38.1133 10.8633 38.1133 11.207V11.4648H32.7695C32.8477 11.0508 32.9648 10.6758 33.1211 10.3398C33.2773 10.0039 33.4727 9.71484 33.707 9.47266C33.9336 9.23047 34.1992 9.04688 34.5039 8.92188C34.8086 8.78906 35.1445 8.72266 35.5117 8.72266Z"/>
<path d="M55.5859 12.7891V12.543C55.5859 11.7773 55.5156 11.0586 55.375 10.3867C55.2422 9.71484 55.0352 9.10938 54.7539 8.57031C54.5742 8.23438 54.3672 7.92578 54.1328 7.64453C53.8984 7.35547 53.6367 7.10938 53.3477 6.90625C52.9883 6.64062 52.5781 6.4375 52.1172 6.29688C51.6641 6.15625 51.1641 6.08594 50.6172 6.08594C50.2188 6.08594 49.8477 6.12891 49.5039 6.21484C49.168 6.29297 48.8555 6.41406 48.5664 6.57812C48.3633 6.6875 48.1719 6.82031 47.9922 6.97656C47.8125 7.125 47.6445 7.28906 47.4883 7.46875V1H44.2305V19H47.1602L47.3125 17.6523C47.4453 17.8242 47.5859 17.9844 47.7344 18.1328C47.8828 18.2734 48.043 18.4023 48.2148 18.5195C48.5352 18.7539 48.8945 18.9297 49.293 19.0469C49.6992 19.1719 50.1484 19.2344 50.6406 19.2344C51.1797 19.2344 51.6719 19.1641 52.1172 19.0234C52.5703 18.8906 52.9766 18.6953 53.3359 18.4375C53.7344 18.1641 54.0781 17.8203 54.3672 17.4062C54.6641 16.9922 54.9023 16.5312 55.082 16.0234C55.2461 15.5625 55.3711 15.0625 55.457 14.5234C55.543 13.9766 55.5859 13.3984 55.5859 12.7891ZM52.3281 12.543V12.7891C52.3281 13.1172 52.3125 13.4336 52.2812 13.7383C52.2578 14.043 52.2148 14.3242 52.1523 14.582C52.0742 14.9336 51.957 15.25 51.8008 15.5312C51.6523 15.8047 51.457 16.0273 51.2148 16.1992C51.043 16.3242 50.8398 16.4219 50.6055 16.4922C50.3711 16.5625 50.1094 16.5977 49.8203 16.5977C49.4844 16.5977 49.1836 16.5586 48.918 16.4805C48.6602 16.4023 48.4336 16.2891 48.2383 16.1406C48.0742 16.0234 47.9297 15.8867 47.8047 15.7305C47.6875 15.5664 47.582 15.3867 47.4883 15.1914V10.1406C47.5586 9.99219 47.6367 9.85547 47.7227 9.73047C47.8086 9.59766 47.9023 9.48047 48.0039 9.37891C48.2148 9.16797 48.4688 9.00781 48.7656 8.89844C49.0625 8.78906 49.4062 8.73438 49.7969 8.73438C50.0859 8.73438 50.3438 8.76953 50.5703 8.83984C50.7969 8.90234 51 9 51.1797 9.13281C51.4531 9.34375 51.6562 9.57812 51.7891 9.83594C51.9297 10.0859 52.043 10.3711 52.1289 10.6914C52.1992 10.9648 52.25 11.2578 52.2812 11.5703C52.3125 11.8828 52.3281 12.207 52.3281 12.543Z"/>
<path d="M61.8672 17.1133C61.8672 17.7148 62.0703 18.2188 62.4766 18.625C62.8828 19.0312 63.4336 19.2344 64.1289 19.2344C64.8164 19.2344 65.3633 19.0352 65.7695 18.6367C66.1836 18.2305 66.3906 17.7227 66.3906 17.1133C66.3906 16.5039 66.1875 15.9922 65.7812 15.5781C65.3828 15.1641 64.832 14.957 64.1289 14.957C63.418 14.957 62.8633 15.168 62.4648 15.5898C62.0664 16.0039 61.8672 16.5117 61.8672 17.1133Z"/>
<path d="M84.4141 12.7891V12.543C84.4141 11.7773 84.3438 11.0586 84.2031 10.3867C84.0703 9.71484 83.8633 9.10938 83.582 8.57031C83.4023 8.23438 83.1953 7.92578 82.9609 7.64453C82.7266 7.35547 82.4648 7.10938 82.1758 6.90625C81.8164 6.64062 81.4062 6.4375 80.9453 6.29688C80.4922 6.15625 79.9922 6.08594 79.4453 6.08594C79.0469 6.08594 78.6758 6.12891 78.332 6.21484C77.9961 6.29297 77.6836 6.41406 77.3945 6.57812C77.1914 6.6875 77 6.82031 76.8203 6.97656C76.6406 7.125 76.4727 7.28906 76.3164 7.46875V1H73.0586V19H75.9883L76.1406 17.6523C76.2734 17.8242 76.4141 17.9844 76.5625 18.1328C76.7109 18.2734 76.8711 18.4023 77.043 18.5195C77.3633 18.7539 77.7227 18.9297 78.1211 19.0469C78.5273 19.1719 78.9766 19.2344 79.4688 19.2344C80.0078 19.2344 80.5 19.1641 80.9453 19.0234C81.3984 18.8906 81.8047 18.6953 82.1641 18.4375C82.5625 18.1641 82.9062 17.8203 83.1953 17.4062C83.4922 16.9922 83.7305 16.5312 83.9102 16.0234C84.0742 15.5625 84.1992 15.0625 84.2852 14.5234C84.3711 13.9766 84.4141 13.3984 84.4141 12.7891ZM81.1562 12.543V12.7891C81.1562 13.1172 81.1406 13.4336 81.1094 13.7383C81.0859 14.043 81.043 14.3242 80.9805 14.582C80.9023 14.9336 80.7852 15.25 80.6289 15.5312C80.4805 15.8047 80.2852 16.0273 80.043 16.1992C79.8711 16.3242 79.668 16.4219 79.4336 16.4922C79.1992 16.5625 78.9375 16.5977 78.6484 16.5977C78.3125 16.5977 78.0117 16.5586 77.7461 16.4805C77.4883 16.4023 77.2617 16.2891 77.0664 16.1406C76.9023 16.0234 76.7578 15.8867 76.6328 15.7305C76.5156 15.5664 76.4102 15.3867 76.3164 15.1914V10.1406C76.3867 9.99219 76.4648 9.85547 76.5508 9.73047C76.6367 9.59766 76.7305 9.48047 76.832 9.37891C77.043 9.16797 77.2969 9.00781 77.5938 8.89844C77.8906 8.78906 78.2344 8.73438 78.625 8.73438C78.9141 8.73438 79.1719 8.76953 79.3984 8.83984C79.625 8.90234 79.8281 9 80.0078 9.13281C80.2812 9.34375 80.4844 9.57812 80.6172 9.83594C80.7578 10.0859 80.8711 10.3711 80.957 10.6914C81.0273 10.9648 81.0781 11.2578 81.1094 11.5703C81.1406 11.8828 81.1562 12.207 81.1562 12.543Z"/>
<path d="M88.082 1V3.66016H91.8789V16.3516H88.082V19H98.8047V16.3516H95.1719V1H88.082Z"/>
<path d="M101.371 12.543V12.7891C101.371 13.7188 101.504 14.5781 101.77 15.3672C102.035 16.1484 102.426 16.8281 102.941 17.4062C103.449 17.9844 104.074 18.4375 104.816 18.7656C105.566 19.0859 106.418 19.2461 107.371 19.2461C108.316 19.2461 109.16 19.0859 109.902 18.7656C110.645 18.4375 111.27 17.9844 111.777 17.4062C112.285 16.8281 112.672 16.1484 112.938 15.3672C113.203 14.5781 113.336 13.7188 113.336 12.7891V12.543C113.336 11.6211 113.203 10.7695 112.938 9.98828C112.672 9.19922 112.285 8.51562 111.777 7.9375C111.262 7.35938 110.633 6.90625 109.891 6.57812C109.148 6.25 108.301 6.08594 107.348 6.08594C106.395 6.08594 105.547 6.25 104.805 6.57812C104.07 6.90625 103.449 7.35938 102.941 7.9375C102.426 8.51562 102.035 9.19922 101.77 9.98828C101.504 10.7695 101.371 11.6211 101.371 12.543ZM104.629 12.7891V12.543C104.629 12.0273 104.68 11.5391 104.781 11.0781C104.883 10.6172 105.043 10.2109 105.262 9.85938C105.48 9.50781 105.762 9.23047 106.105 9.02734C106.449 8.82422 106.863 8.72266 107.348 8.72266C107.84 8.72266 108.258 8.82422 108.602 9.02734C108.945 9.23047 109.227 9.50781 109.445 9.85938C109.656 10.2109 109.812 10.6172 109.914 11.0781C110.016 11.5391 110.066 12.0273 110.066 12.543V12.7891C110.066 13.3203 110.016 13.8203 109.914 14.2891C109.812 14.75 109.656 15.1523 109.445 15.4961C109.227 15.8477 108.945 16.125 108.602 16.3281C108.258 16.5312 107.848 16.6328 107.371 16.6328C106.879 16.6328 106.457 16.5312 106.105 16.3281C105.762 16.125 105.48 15.8477 105.262 15.4961C105.043 15.1523 104.883 14.75 104.781 14.2891C104.68 13.8203 104.629 13.3203 104.629 12.7891Z"/>
<path d="M115.902 12.5664V12.8125C115.902 13.7344 116.02 14.5898 116.254 15.3789C116.496 16.1602 116.84 16.8359 117.285 17.4062C117.73 17.9766 118.266 18.4258 118.891 18.7539C119.523 19.0742 120.234 19.2344 121.023 19.2344C121.422 19.2344 121.793 19.1914 122.137 19.1055C122.488 19.0195 122.809 18.8984 123.098 18.7422C123.293 18.6328 123.477 18.5078 123.648 18.3672C123.82 18.2266 123.984 18.0703 124.141 17.8984V18.625C124.141 19.0547 124.078 19.4414 123.953 19.7852C123.836 20.1289 123.664 20.418 123.438 20.6523C123.188 20.9102 122.875 21.1055 122.5 21.2383C122.133 21.3711 121.711 21.4375 121.234 21.4375C120.938 21.4375 120.648 21.4062 120.367 21.3438C120.094 21.2891 119.828 21.2031 119.57 21.0859C119.305 20.9688 119.051 20.8164 118.809 20.6289C118.566 20.4492 118.34 20.2383 118.129 19.9961L116.664 21.9766C116.938 22.3281 117.266 22.6289 117.648 22.8789C118.031 23.1367 118.438 23.3477 118.867 23.5117C119.297 23.6758 119.73 23.7969 120.168 23.875C120.605 23.9531 121.016 23.9922 121.398 23.9922C122.289 23.9922 123.102 23.8711 123.836 23.6289C124.578 23.3945 125.215 23.0469 125.746 22.5859C126.27 22.125 126.676 21.5586 126.965 20.8867C127.262 20.2148 127.41 19.4492 127.41 18.5898V6.32031H124.445L124.316 7.52734C124.16 7.33203 123.988 7.15625 123.801 7C123.613 6.83594 123.41 6.69531 123.191 6.57812C122.902 6.41406 122.578 6.29297 122.219 6.21484C121.867 6.12891 121.477 6.08594 121.047 6.08594C120.25 6.08594 119.535 6.24219 118.902 6.55469C118.27 6.86719 117.73 7.30859 117.285 7.87891C116.84 8.44922 116.496 9.13281 116.254 9.92969C116.02 10.7266 115.902 11.6055 115.902 12.5664ZM119.172 12.8125V12.5664C119.172 12.0352 119.227 11.5391 119.336 11.0781C119.445 10.6094 119.613 10.1992 119.84 9.84766C120.059 9.50391 120.336 9.23438 120.672 9.03906C121.008 8.83594 121.406 8.73438 121.867 8.73438C122.117 8.73438 122.348 8.75781 122.559 8.80469C122.777 8.85156 122.977 8.91797 123.156 9.00391C123.367 9.10547 123.555 9.23828 123.719 9.40234C123.883 9.56641 124.023 9.75781 124.141 9.97656V15.3438C124.031 15.5391 123.902 15.7148 123.754 15.8711C123.605 16.0273 123.434 16.1602 123.238 16.2695C123.051 16.3711 122.84 16.4492 122.605 16.5039C122.379 16.5586 122.125 16.5859 121.844 16.5859C121.383 16.5859 120.984 16.4883 120.648 16.293C120.312 16.0977 120.035 15.8281 119.816 15.4844C119.598 15.1484 119.434 14.7539 119.324 14.3008C119.223 13.8398 119.172 13.3438 119.172 12.8125Z"/>
</mask>
<path d="M11.6875 21.543V19H1V21.543H11.6875Z" fill="white"/>
<path d="M16.2695 19H19.1289L20.7344 10.9375L21.0039 12.2266L22.3984 19H25.2578L27.5312 6.32031H24.543L23.6055 13.7969L23.4414 15.0273L23.2188 13.8203L21.8477 6.32031H19.668L18.2969 13.8555L18.0742 15.0625L16.9727 6.32031H13.9961L16.2695 19Z" fill="white"/>
<path d="M35.8984 19.2344C37.125 19.2344 38.1875 18.9961 39.0859 18.5195C39.9844 18.043 40.6406 17.5117 41.0547 16.9258L39.4258 15.168C39.0508 15.6523 38.5625 16.0156 37.9609 16.2578C37.3594 16.5 36.7383 16.6211 36.0977 16.6211C35.6445 16.6211 35.2266 16.5508 34.8438 16.4102C34.4609 16.2695 34.1211 16.0703 33.8242 15.8125C33.5352 15.5625 33.3047 15.2852 33.1328 14.9805C32.9609 14.668 32.8203 14.2578 32.7109 13.75V13.7148H41.3125V12.332C41.3125 11.4023 41.1836 10.5547 40.9258 9.78906C40.668 9.01562 40.293 8.35547 39.8008 7.80859C39.3008 7.26172 38.6914 6.83984 37.9727 6.54297C37.2617 6.23828 36.4492 6.08594 35.5352 6.08594C34.6523 6.08594 33.8359 6.24609 33.0859 6.56641C32.3359 6.88672 31.6875 7.33594 31.1406 7.91406C30.5938 8.49219 30.168 9.18359 29.8633 9.98828C29.5586 10.7852 29.4062 11.668 29.4062 12.6367V13.1055C29.4062 13.957 29.5586 14.7578 29.8633 15.5078C30.1758 16.25 30.6172 16.8945 31.1875 17.4414C31.7578 17.9961 32.4414 18.4336 33.2383 18.7539C34.0352 19.0742 34.9219 19.2344 35.8984 19.2344ZM35.5117 8.72266C35.9258 8.72266 36.2891 8.78906 36.6016 8.92188C36.9219 9.04688 37.1914 9.21875 37.4102 9.4375C37.6289 9.66406 37.8008 9.92969 37.9258 10.2344C38.0508 10.5391 38.1133 10.8633 38.1133 11.207V11.4648H32.7695C32.8477 11.0508 32.9648 10.6758 33.1211 10.3398C33.2773 10.0039 33.4727 9.71484 33.707 9.47266C33.9336 9.23047 34.1992 9.04688 34.5039 8.92188C34.8086 8.78906 35.1445 8.72266 35.5117 8.72266Z" fill="white"/>
<path d="M55.5859 12.7891V12.543C55.5859 11.7773 55.5156 11.0586 55.375 10.3867C55.2422 9.71484 55.0352 9.10938 54.7539 8.57031C54.5742 8.23438 54.3672 7.92578 54.1328 7.64453C53.8984 7.35547 53.6367 7.10938 53.3477 6.90625C52.9883 6.64062 52.5781 6.4375 52.1172 6.29688C51.6641 6.15625 51.1641 6.08594 50.6172 6.08594C50.2188 6.08594 49.8477 6.12891 49.5039 6.21484C49.168 6.29297 48.8555 6.41406 48.5664 6.57812C48.3633 6.6875 48.1719 6.82031 47.9922 6.97656C47.8125 7.125 47.6445 7.28906 47.4883 7.46875V1H44.2305V19H47.1602L47.3125 17.6523C47.4453 17.8242 47.5859 17.9844 47.7344 18.1328C47.8828 18.2734 48.043 18.4023 48.2148 18.5195C48.5352 18.7539 48.8945 18.9297 49.293 19.0469C49.6992 19.1719 50.1484 19.2344 50.6406 19.2344C51.1797 19.2344 51.6719 19.1641 52.1172 19.0234C52.5703 18.8906 52.9766 18.6953 53.3359 18.4375C53.7344 18.1641 54.0781 17.8203 54.3672 17.4062C54.6641 16.9922 54.9023 16.5312 55.082 16.0234C55.2461 15.5625 55.3711 15.0625 55.457 14.5234C55.543 13.9766 55.5859 13.3984 55.5859 12.7891ZM52.3281 12.543V12.7891C52.3281 13.1172 52.3125 13.4336 52.2812 13.7383C52.2578 14.043 52.2148 14.3242 52.1523 14.582C52.0742 14.9336 51.957 15.25 51.8008 15.5312C51.6523 15.8047 51.457 16.0273 51.2148 16.1992C51.043 16.3242 50.8398 16.4219 50.6055 16.4922C50.3711 16.5625 50.1094 16.5977 49.8203 16.5977C49.4844 16.5977 49.1836 16.5586 48.918 16.4805C48.6602 16.4023 48.4336 16.2891 48.2383 16.1406C48.0742 16.0234 47.9297 15.8867 47.8047 15.7305C47.6875 15.5664 47.582 15.3867 47.4883 15.1914V10.1406C47.5586 9.99219 47.6367 9.85547 47.7227 9.73047C47.8086 9.59766 47.9023 9.48047 48.0039 9.37891C48.2148 9.16797 48.4688 9.00781 48.7656 8.89844C49.0625 8.78906 49.4062 8.73438 49.7969 8.73438C50.0859 8.73438 50.3438 8.76953 50.5703 8.83984C50.7969 8.90234 51 9 51.1797 9.13281C51.4531 9.34375 51.6562 9.57812 51.7891 9.83594C51.9297 10.0859 52.043 10.3711 52.1289 10.6914C52.1992 10.9648 52.25 11.2578 52.2812 11.5703C52.3125 11.8828 52.3281 12.207 52.3281 12.543Z" fill="white"/>
<path d="M61.8672 17.1133C61.8672 17.7148 62.0703 18.2188 62.4766 18.625C62.8828 19.0312 63.4336 19.2344 64.1289 19.2344C64.8164 19.2344 65.3633 19.0352 65.7695 18.6367C66.1836 18.2305 66.3906 17.7227 66.3906 17.1133C66.3906 16.5039 66.1875 15.9922 65.7812 15.5781C65.3828 15.1641 64.832 14.957 64.1289 14.957C63.418 14.957 62.8633 15.168 62.4648 15.5898C62.0664 16.0039 61.8672 16.5117 61.8672 17.1133Z" fill="white"/>
<path d="M84.4141 12.7891V12.543C84.4141 11.7773 84.3438 11.0586 84.2031 10.3867C84.0703 9.71484 83.8633 9.10938 83.582 8.57031C83.4023 8.23438 83.1953 7.92578 82.9609 7.64453C82.7266 7.35547 82.4648 7.10938 82.1758 6.90625C81.8164 6.64062 81.4062 6.4375 80.9453 6.29688C80.4922 6.15625 79.9922 6.08594 79.4453 6.08594C79.0469 6.08594 78.6758 6.12891 78.332 6.21484C77.9961 6.29297 77.6836 6.41406 77.3945 6.57812C77.1914 6.6875 77 6.82031 76.8203 6.97656C76.6406 7.125 76.4727 7.28906 76.3164 7.46875V1H73.0586V19H75.9883L76.1406 17.6523C76.2734 17.8242 76.4141 17.9844 76.5625 18.1328C76.7109 18.2734 76.8711 18.4023 77.043 18.5195C77.3633 18.7539 77.7227 18.9297 78.1211 19.0469C78.5273 19.1719 78.9766 19.2344 79.4688 19.2344C80.0078 19.2344 80.5 19.1641 80.9453 19.0234C81.3984 18.8906 81.8047 18.6953 82.1641 18.4375C82.5625 18.1641 82.9062 17.8203 83.1953 17.4062C83.4922 16.9922 83.7305 16.5312 83.9102 16.0234C84.0742 15.5625 84.1992 15.0625 84.2852 14.5234C84.3711 13.9766 84.4141 13.3984 84.4141 12.7891ZM81.1562 12.543V12.7891C81.1562 13.1172 81.1406 13.4336 81.1094 13.7383C81.0859 14.043 81.043 14.3242 80.9805 14.582C80.9023 14.9336 80.7852 15.25 80.6289 15.5312C80.4805 15.8047 80.2852 16.0273 80.043 16.1992C79.8711 16.3242 79.668 16.4219 79.4336 16.4922C79.1992 16.5625 78.9375 16.5977 78.6484 16.5977C78.3125 16.5977 78.0117 16.5586 77.7461 16.4805C77.4883 16.4023 77.2617 16.2891 77.0664 16.1406C76.9023 16.0234 76.7578 15.8867 76.6328 15.7305C76.5156 15.5664 76.4102 15.3867 76.3164 15.1914V10.1406C76.3867 9.99219 76.4648 9.85547 76.5508 9.73047C76.6367 9.59766 76.7305 9.48047 76.832 9.37891C77.043 9.16797 77.2969 9.00781 77.5938 8.89844C77.8906 8.78906 78.2344 8.73438 78.625 8.73438C78.9141 8.73438 79.1719 8.76953 79.3984 8.83984C79.625 8.90234 79.8281 9 80.0078 9.13281C80.2812 9.34375 80.4844 9.57812 80.6172 9.83594C80.7578 10.0859 80.8711 10.3711 80.957 10.6914C81.0273 10.9648 81.0781 11.2578 81.1094 11.5703C81.1406 11.8828 81.1562 12.207 81.1562 12.543Z" fill="white"/>
<path d="M88.082 1V3.66016H91.8789V16.3516H88.082V19H98.8047V16.3516H95.1719V1H88.082Z" fill="white"/>
<path d="M101.371 12.543V12.7891C101.371 13.7188 101.504 14.5781 101.77 15.3672C102.035 16.1484 102.426 16.8281 102.941 17.4062C103.449 17.9844 104.074 18.4375 104.816 18.7656C105.566 19.0859 106.418 19.2461 107.371 19.2461C108.316 19.2461 109.16 19.0859 109.902 18.7656C110.645 18.4375 111.27 17.9844 111.777 17.4062C112.285 16.8281 112.672 16.1484 112.938 15.3672C113.203 14.5781 113.336 13.7188 113.336 12.7891V12.543C113.336 11.6211 113.203 10.7695 112.938 9.98828C112.672 9.19922 112.285 8.51562 111.777 7.9375C111.262 7.35938 110.633 6.90625 109.891 6.57812C109.148 6.25 108.301 6.08594 107.348 6.08594C106.395 6.08594 105.547 6.25 104.805 6.57812C104.07 6.90625 103.449 7.35938 102.941 7.9375C102.426 8.51562 102.035 9.19922 101.77 9.98828C101.504 10.7695 101.371 11.6211 101.371 12.543ZM104.629 12.7891V12.543C104.629 12.0273 104.68 11.5391 104.781 11.0781C104.883 10.6172 105.043 10.2109 105.262 9.85938C105.48 9.50781 105.762 9.23047 106.105 9.02734C106.449 8.82422 106.863 8.72266 107.348 8.72266C107.84 8.72266 108.258 8.82422 108.602 9.02734C108.945 9.23047 109.227 9.50781 109.445 9.85938C109.656 10.2109 109.812 10.6172 109.914 11.0781C110.016 11.5391 110.066 12.0273 110.066 12.543V12.7891C110.066 13.3203 110.016 13.8203 109.914 14.2891C109.812 14.75 109.656 15.1523 109.445 15.4961C109.227 15.8477 108.945 16.125 108.602 16.3281C108.258 16.5312 107.848 16.6328 107.371 16.6328C106.879 16.6328 106.457 16.5312 106.105 16.3281C105.762 16.125 105.48 15.8477 105.262 15.4961C105.043 15.1523 104.883 14.75 104.781 14.2891C104.68 13.8203 104.629 13.3203 104.629 12.7891Z" fill="white"/>
<path d="M115.902 12.5664V12.8125C115.902 13.7344 116.02 14.5898 116.254 15.3789C116.496 16.1602 116.84 16.8359 117.285 17.4062C117.73 17.9766 118.266 18.4258 118.891 18.7539C119.523 19.0742 120.234 19.2344 121.023 19.2344C121.422 19.2344 121.793 19.1914 122.137 19.1055C122.488 19.0195 122.809 18.8984 123.098 18.7422C123.293 18.6328 123.477 18.5078 123.648 18.3672C123.82 18.2266 123.984 18.0703 124.141 17.8984V18.625C124.141 19.0547 124.078 19.4414 123.953 19.7852C123.836 20.1289 123.664 20.418 123.438 20.6523C123.188 20.9102 122.875 21.1055 122.5 21.2383C122.133 21.3711 121.711 21.4375 121.234 21.4375C120.938 21.4375 120.648 21.4062 120.367 21.3438C120.094 21.2891 119.828 21.2031 119.57 21.0859C119.305 20.9688 119.051 20.8164 118.809 20.6289C118.566 20.4492 118.34 20.2383 118.129 19.9961L116.664 21.9766C116.938 22.3281 117.266 22.6289 117.648 22.8789C118.031 23.1367 118.438 23.3477 118.867 23.5117C119.297 23.6758 119.73 23.7969 120.168 23.875C120.605 23.9531 121.016 23.9922 121.398 23.9922C122.289 23.9922 123.102 23.8711 123.836 23.6289C124.578 23.3945 125.215 23.0469 125.746 22.5859C126.27 22.125 126.676 21.5586 126.965 20.8867C127.262 20.2148 127.41 19.4492 127.41 18.5898V6.32031H124.445L124.316 7.52734C124.16 7.33203 123.988 7.15625 123.801 7C123.613 6.83594 123.41 6.69531 123.191 6.57812C122.902 6.41406 122.578 6.29297 122.219 6.21484C121.867 6.12891 121.477 6.08594 121.047 6.08594C120.25 6.08594 119.535 6.24219 118.902 6.55469C118.27 6.86719 117.73 7.30859 117.285 7.87891C116.84 8.44922 116.496 9.13281 116.254 9.92969C116.02 10.7266 115.902 11.6055 115.902 12.5664ZM119.172 12.8125V12.5664C119.172 12.0352 119.227 11.5391 119.336 11.0781C119.445 10.6094 119.613 10.1992 119.84 9.84766C120.059 9.50391 120.336 9.23438 120.672 9.03906C121.008 8.83594 121.406 8.73438 121.867 8.73438C122.117 8.73438 122.348 8.75781 122.559 8.80469C122.777 8.85156 122.977 8.91797 123.156 9.00391C123.367 9.10547 123.555 9.23828 123.719 9.40234C123.883 9.56641 124.023 9.75781 124.141 9.97656V15.3438C124.031 15.5391 123.902 15.7148 123.754 15.8711C123.605 16.0273 123.434 16.1602 123.238 16.2695C123.051 16.3711 122.84 16.4492 122.605 16.5039C122.379 16.5586 122.125 16.5859 121.844 16.5859C121.383 16.5859 120.984 16.4883 120.648 16.293C120.312 16.0977 120.035 15.8281 119.816 15.4844C119.598 15.1484 119.434 14.7539 119.324 14.3008C119.223 13.8398 119.172 13.3438 119.172 12.8125Z" fill="white"/>
<path d="M11.6875 21.543V19H1V21.543H11.6875Z" stroke="#0500FF" stroke-width="2" mask="url(#path-1-outside-1)"/>
<path d="M16.2695 19H19.1289L20.7344 10.9375L21.0039 12.2266L22.3984 19H25.2578L27.5312 6.32031H24.543L23.6055 13.7969L23.4414 15.0273L23.2188 13.8203L21.8477 6.32031H19.668L18.2969 13.8555L18.0742 15.0625L16.9727 6.32031H13.9961L16.2695 19Z" stroke="#0500FF" stroke-width="2" mask="url(#path-1-outside-1)"/>
<path d="M35.8984 19.2344C37.125 19.2344 38.1875 18.9961 39.0859 18.5195C39.9844 18.043 40.6406 17.5117 41.0547 16.9258L39.4258 15.168C39.0508 15.6523 38.5625 16.0156 37.9609 16.2578C37.3594 16.5 36.7383 16.6211 36.0977 16.6211C35.6445 16.6211 35.2266 16.5508 34.8438 16.4102C34.4609 16.2695 34.1211 16.0703 33.8242 15.8125C33.5352 15.5625 33.3047 15.2852 33.1328 14.9805C32.9609 14.668 32.8203 14.2578 32.7109 13.75V13.7148H41.3125V12.332C41.3125 11.4023 41.1836 10.5547 40.9258 9.78906C40.668 9.01562 40.293 8.35547 39.8008 7.80859C39.3008 7.26172 38.6914 6.83984 37.9727 6.54297C37.2617 6.23828 36.4492 6.08594 35.5352 6.08594C34.6523 6.08594 33.8359 6.24609 33.0859 6.56641C32.3359 6.88672 31.6875 7.33594 31.1406 7.91406C30.5938 8.49219 30.168 9.18359 29.8633 9.98828C29.5586 10.7852 29.4062 11.668 29.4062 12.6367V13.1055C29.4062 13.957 29.5586 14.7578 29.8633 15.5078C30.1758 16.25 30.6172 16.8945 31.1875 17.4414C31.7578 17.9961 32.4414 18.4336 33.2383 18.7539C34.0352 19.0742 34.9219 19.2344 35.8984 19.2344ZM35.5117 8.72266C35.9258 8.72266 36.2891 8.78906 36.6016 8.92188C36.9219 9.04688 37.1914 9.21875 37.4102 9.4375C37.6289 9.66406 37.8008 9.92969 37.9258 10.2344C38.0508 10.5391 38.1133 10.8633 38.1133 11.207V11.4648H32.7695C32.8477 11.0508 32.9648 10.6758 33.1211 10.3398C33.2773 10.0039 33.4727 9.71484 33.707 9.47266C33.9336 9.23047 34.1992 9.04688 34.5039 8.92188C34.8086 8.78906 35.1445 8.72266 35.5117 8.72266Z" stroke="#0500FF" stroke-width="2" mask="url(#path-1-outside-1)"/>
<path d="M55.5859 12.7891V12.543C55.5859 11.7773 55.5156 11.0586 55.375 10.3867C55.2422 9.71484 55.0352 9.10938 54.7539 8.57031C54.5742 8.23438 54.3672 7.92578 54.1328 7.64453C53.8984 7.35547 53.6367 7.10938 53.3477 6.90625C52.9883 6.64062 52.5781 6.4375 52.1172 6.29688C51.6641 6.15625 51.1641 6.08594 50.6172 6.08594C50.2188 6.08594 49.8477 6.12891 49.5039 6.21484C49.168 6.29297 48.8555 6.41406 48.5664 6.57812C48.3633 6.6875 48.1719 6.82031 47.9922 6.97656C47.8125 7.125 47.6445 7.28906 47.4883 7.46875V1H44.2305V19H47.1602L47.3125 17.6523C47.4453 17.8242 47.5859 17.9844 47.7344 18.1328C47.8828 18.2734 48.043 18.4023 48.2148 18.5195C48.5352 18.7539 48.8945 18.9297 49.293 19.0469C49.6992 19.1719 50.1484 19.2344 50.6406 19.2344C51.1797 19.2344 51.6719 19.1641 52.1172 19.0234C52.5703 18.8906 52.9766 18.6953 53.3359 18.4375C53.7344 18.1641 54.0781 17.8203 54.3672 17.4062C54.6641 16.9922 54.9023 16.5312 55.082 16.0234C55.2461 15.5625 55.3711 15.0625 55.457 14.5234C55.543 13.9766 55.5859 13.3984 55.5859 12.7891ZM52.3281 12.543V12.7891C52.3281 13.1172 52.3125 13.4336 52.2812 13.7383C52.2578 14.043 52.2148 14.3242 52.1523 14.582C52.0742 14.9336 51.957 15.25 51.8008 15.5312C51.6523 15.8047 51.457 16.0273 51.2148 16.1992C51.043 16.3242 50.8398 16.4219 50.6055 16.4922C50.3711 16.5625 50.1094 16.5977 49.8203 16.5977C49.4844 16.5977 49.1836 16.5586 48.918 16.4805C48.6602 16.4023 48.4336 16.2891 48.2383 16.1406C48.0742 16.0234 47.9297 15.8867 47.8047 15.7305C47.6875 15.5664 47.582 15.3867 47.4883 15.1914V10.1406C47.5586 9.99219 47.6367 9.85547 47.7227 9.73047C47.8086 9.59766 47.9023 9.48047 48.0039 9.37891C48.2148 9.16797 48.4688 9.00781 48.7656 8.89844C49.0625 8.78906 49.4062 8.73438 49.7969 8.73438C50.0859 8.73438 50.3438 8.76953 50.5703 8.83984C50.7969 8.90234 51 9 51.1797 9.13281C51.4531 9.34375 51.6562 9.57812 51.7891 9.83594C51.9297 10.0859 52.043 10.3711 52.1289 10.6914C52.1992 10.9648 52.25 11.2578 52.2812 11.5703C52.3125 11.8828 52.3281 12.207 52.3281 12.543Z" stroke="#0500FF" stroke-width="2" mask="url(#path-1-outside-1)"/>
<path d="M61.8672 17.1133C61.8672 17.7148 62.0703 18.2188 62.4766 18.625C62.8828 19.0312 63.4336 19.2344 64.1289 19.2344C64.8164 19.2344 65.3633 19.0352 65.7695 18.6367C66.1836 18.2305 66.3906 17.7227 66.3906 17.1133C66.3906 16.5039 66.1875 15.9922 65.7812 15.5781C65.3828 15.1641 64.832 14.957 64.1289 14.957C63.418 14.957 62.8633 15.168 62.4648 15.5898C62.0664 16.0039 61.8672 16.5117 61.8672 17.1133Z" stroke="#0500FF" stroke-width="2" mask="url(#path-1-outside-1)"/>
<path d="M84.4141 12.7891V12.543C84.4141 11.7773 84.3438 11.0586 84.2031 10.3867C84.0703 9.71484 83.8633 9.10938 83.582 8.57031C83.4023 8.23438 83.1953 7.92578 82.9609 7.64453C82.7266 7.35547 82.4648 7.10938 82.1758 6.90625C81.8164 6.64062 81.4062 6.4375 80.9453 6.29688C80.4922 6.15625 79.9922 6.08594 79.4453 6.08594C79.0469 6.08594 78.6758 6.12891 78.332 6.21484C77.9961 6.29297 77.6836 6.41406 77.3945 6.57812C77.1914 6.6875 77 6.82031 76.8203 6.97656C76.6406 7.125 76.4727 7.28906 76.3164 7.46875V1H73.0586V19H75.9883L76.1406 17.6523C76.2734 17.8242 76.4141 17.9844 76.5625 18.1328C76.7109 18.2734 76.8711 18.4023 77.043 18.5195C77.3633 18.7539 77.7227 18.9297 78.1211 19.0469C78.5273 19.1719 78.9766 19.2344 79.4688 19.2344C80.0078 19.2344 80.5 19.1641 80.9453 19.0234C81.3984 18.8906 81.8047 18.6953 82.1641 18.4375C82.5625 18.1641 82.9062 17.8203 83.1953 17.4062C83.4922 16.9922 83.7305 16.5312 83.9102 16.0234C84.0742 15.5625 84.1992 15.0625 84.2852 14.5234C84.3711 13.9766 84.4141 13.3984 84.4141 12.7891ZM81.1562 12.543V12.7891C81.1562 13.1172 81.1406 13.4336 81.1094 13.7383C81.0859 14.043 81.043 14.3242 80.9805 14.582C80.9023 14.9336 80.7852 15.25 80.6289 15.5312C80.4805 15.8047 80.2852 16.0273 80.043 16.1992C79.8711 16.3242 79.668 16.4219 79.4336 16.4922C79.1992 16.5625 78.9375 16.5977 78.6484 16.5977C78.3125 16.5977 78.0117 16.5586 77.7461 16.4805C77.4883 16.4023 77.2617 16.2891 77.0664 16.1406C76.9023 16.0234 76.7578 15.8867 76.6328 15.7305C76.5156 15.5664 76.4102 15.3867 76.3164 15.1914V10.1406C76.3867 9.99219 76.4648 9.85547 76.5508 9.73047C76.6367 9.59766 76.7305 9.48047 76.832 9.37891C77.043 9.16797 77.2969 9.00781 77.5938 8.89844C77.8906 8.78906 78.2344 8.73438 78.625 8.73438C78.9141 8.73438 79.1719 8.76953 79.3984 8.83984C79.625 8.90234 79.8281 9 80.0078 9.13281C80.2812 9.34375 80.4844 9.57812 80.6172 9.83594C80.7578 10.0859 80.8711 10.3711 80.957 10.6914C81.0273 10.9648 81.0781 11.2578 81.1094 11.5703C81.1406 11.8828 81.1562 12.207 81.1562 12.543Z" stroke="#0500FF" stroke-width="2" mask="url(#path-1-outside-1)"/>
<path d="M88.082 1V3.66016H91.8789V16.3516H88.082V19H98.8047V16.3516H95.1719V1H88.082Z" stroke="#0500FF" stroke-width="2" mask="url(#path-1-outside-1)"/>
<path d="M101.371 12.543V12.7891C101.371 13.7188 101.504 14.5781 101.77 15.3672C102.035 16.1484 102.426 16.8281 102.941 17.4062C103.449 17.9844 104.074 18.4375 104.816 18.7656C105.566 19.0859 106.418 19.2461 107.371 19.2461C108.316 19.2461 109.16 19.0859 109.902 18.7656C110.645 18.4375 111.27 17.9844 111.777 17.4062C112.285 16.8281 112.672 16.1484 112.938 15.3672C113.203 14.5781 113.336 13.7188 113.336 12.7891V12.543C113.336 11.6211 113.203 10.7695 112.938 9.98828C112.672 9.19922 112.285 8.51562 111.777 7.9375C111.262 7.35938 110.633 6.90625 109.891 6.57812C109.148 6.25 108.301 6.08594 107.348 6.08594C106.395 6.08594 105.547 6.25 104.805 6.57812C104.07 6.90625 103.449 7.35938 102.941 7.9375C102.426 8.51562 102.035 9.19922 101.77 9.98828C101.504 10.7695 101.371 11.6211 101.371 12.543ZM104.629 12.7891V12.543C104.629 12.0273 104.68 11.5391 104.781 11.0781C104.883 10.6172 105.043 10.2109 105.262 9.85938C105.48 9.50781 105.762 9.23047 106.105 9.02734C106.449 8.82422 106.863 8.72266 107.348 8.72266C107.84 8.72266 108.258 8.82422 108.602 9.02734C108.945 9.23047 109.227 9.50781 109.445 9.85938C109.656 10.2109 109.812 10.6172 109.914 11.0781C110.016 11.5391 110.066 12.0273 110.066 12.543V12.7891C110.066 13.3203 110.016 13.8203 109.914 14.2891C109.812 14.75 109.656 15.1523 109.445 15.4961C109.227 15.8477 108.945 16.125 108.602 16.3281C108.258 16.5312 107.848 16.6328 107.371 16.6328C106.879 16.6328 106.457 16.5312 106.105 16.3281C105.762 16.125 105.48 15.8477 105.262 15.4961C105.043 15.1523 104.883 14.75 104.781 14.2891C104.68 13.8203 104.629 13.3203 104.629 12.7891Z" stroke="#0500FF" stroke-width="2" mask="url(#path-1-outside-1)"/>
<path d="M115.902 12.5664V12.8125C115.902 13.7344 116.02 14.5898 116.254 15.3789C116.496 16.1602 116.84 16.8359 117.285 17.4062C117.73 17.9766 118.266 18.4258 118.891 18.7539C119.523 19.0742 120.234 19.2344 121.023 19.2344C121.422 19.2344 121.793 19.1914 122.137 19.1055C122.488 19.0195 122.809 18.8984 123.098 18.7422C123.293 18.6328 123.477 18.5078 123.648 18.3672C123.82 18.2266 123.984 18.0703 124.141 17.8984V18.625C124.141 19.0547 124.078 19.4414 123.953 19.7852C123.836 20.1289 123.664 20.418 123.438 20.6523C123.188 20.9102 122.875 21.1055 122.5 21.2383C122.133 21.3711 121.711 21.4375 121.234 21.4375C120.938 21.4375 120.648 21.4062 120.367 21.3438C120.094 21.2891 119.828 21.2031 119.57 21.0859C119.305 20.9688 119.051 20.8164 118.809 20.6289C118.566 20.4492 118.34 20.2383 118.129 19.9961L116.664 21.9766C116.938 22.3281 117.266 22.6289 117.648 22.8789C118.031 23.1367 118.438 23.3477 118.867 23.5117C119.297 23.6758 119.73 23.7969 120.168 23.875C120.605 23.9531 121.016 23.9922 121.398 23.9922C122.289 23.9922 123.102 23.8711 123.836 23.6289C124.578 23.3945 125.215 23.0469 125.746 22.5859C126.27 22.125 126.676 21.5586 126.965 20.8867C127.262 20.2148 127.41 19.4492 127.41 18.5898V6.32031H124.445L124.316 7.52734C124.16 7.33203 123.988 7.15625 123.801 7C123.613 6.83594 123.41 6.69531 123.191 6.57812C122.902 6.41406 122.578 6.29297 122.219 6.21484C121.867 6.12891 121.477 6.08594 121.047 6.08594C120.25 6.08594 119.535 6.24219 118.902 6.55469C118.27 6.86719 117.73 7.30859 117.285 7.87891C116.84 8.44922 116.496 9.13281 116.254 9.92969C116.02 10.7266 115.902 11.6055 115.902 12.5664ZM119.172 12.8125V12.5664C119.172 12.0352 119.227 11.5391 119.336 11.0781C119.445 10.6094 119.613 10.1992 119.84 9.84766C120.059 9.50391 120.336 9.23438 120.672 9.03906C121.008 8.83594 121.406 8.73438 121.867 8.73438C122.117 8.73438 122.348 8.75781 122.559 8.80469C122.777 8.85156 122.977 8.91797 123.156 9.00391C123.367 9.10547 123.555 9.23828 123.719 9.40234C123.883 9.56641 124.023 9.75781 124.141 9.97656V15.3438C124.031 15.5391 123.902 15.7148 123.754 15.8711C123.605 16.0273 123.434 16.1602 123.238 16.2695C123.051 16.3711 122.84 16.4492 122.605 16.5039C122.379 16.5586 122.125 16.5859 121.844 16.5859C121.383 16.5859 120.984 16.4883 120.648 16.293C120.312 16.0977 120.035 15.8281 119.816 15.4844C119.598 15.1484 119.434 14.7539 119.324 14.3008C119.223 13.8398 119.172 13.3438 119.172 12.8125Z" stroke="#0500FF" stroke-width="2" mask="url(#path-1-outside-1)"/>
</g>
<defs>
<filter id="filter0_d" x="0" y="0" width="130.41" height="26.9922" filterUnits="userSpaceOnUse" color-interpolation-filters="sRGB">
<feFlood flood-opacity="0" result="BackgroundImageFix"/>
<feColorMatrix in="SourceAlpha" type="matrix" values="0 0 0 0 0 0 0 0 0 0 0 0 0 0 0 0 0 0 127 0" result="hardAlpha"/>
<feOffset dx="2" dy="2"/>
<feComposite in2="hardAlpha" operator="out"/>
<feColorMatrix type="matrix" values="0 0 0 0 0.02 0 0 0 0 0 0 0 0 0 1 0 0 0 1 0"/>
<feBlend mode="normal" in2="BackgroundImageFix" result="effect1_dropShadow"/>
<feBlend mode="normal" in="SourceGraphic" in2="effect1_dropShadow" result="shape"/>
</filter>
</defs>
</svg>
